<?xml version="1.0" standalone="no"?>
<!DOCTYPE svg PUBLIC "-//W3C//DTD SVG 20010904//EN"
 "http://www.w3.org/TR/2001/REC-SVG-20010904/DTD/svg10.dtd">
<svg version="1.0" xmlns="http://www.w3.org/2000/svg"
 width="745.000000pt" height="745.000000pt" viewBox="0 0 745.000000 745.000000"
 preserveAspectRatio="xMidYMid meet">
<metadata>
Created by potrace 1.11, written by Peter Selinger 2001-2013
</metadata>
<g transform="translate(0.000000,745.000000) scale(0.100000,-0.100000)"
fill="#000000" stroke="none">
<path d="M2827 6169 c7 -7 15 -10 18 -7 3 3 -2 9 -12 12 -14 6 -15 5 -6 -5z"/>
<path d="M3040 6173 c-3 -7 -31 -15 -64 -18 -32 -3 -62 -8 -66 -10 -5 -3 -10
0 -12 6 -3 8 -9 6 -20 -4 -8 -9 -19 -13 -22 -9 -4 4 -6 -34 -5 -83 2 -83 0
-90 -17 -88 -10 1 -41 5 -69 8 -27 4 -56 7 -62 7 -7 1 -13 6 -13 12 0 6 -5 4
-10 -4 -7 -10 -10 -11 -10 -2 0 8 -10 11 -29 7 -18 -3 -33 0 -41 10 -7 8 -18
15 -24 15 -6 0 -4 -5 4 -10 12 -8 10 -10 -11 -10 -14 0 -31 6 -38 13 -11 9
-12 9 -7 0 5 -9 2 -11 -8 -7 -9 3 -13 11 -10 16 4 7 0 7 -12 0 -19 -10 -108
-1 -121 11 -3 4 -11 3 -18 -3 -7 -6 -21 -4 -38 5 -20 10 -27 11 -27 2 0 -7 -7
-4 -14 6 -13 17 -32 25 -22 9 2 -4 -6 -8 -20 -8 -13 0 -24 3 -24 6 0 4 -19 7
-42 8 -53 0 -71 4 -80 17 -5 6 -8 6 -8 -1 0 -11 -20 -10 -78 2 -15 3 -20 9
-15 17 4 8 1 7 -10 -2 -10 -8 -27 -11 -41 -7 -28 7 -78 -12 -70 -26 4 -5 -4
-20 -17 -34 -18 -19 -25 -22 -38 -12 -13 10 -14 10 -4 -1 6 -7 9 -21 6 -30 -9
-24 -50 -61 -59 -53 -5 4 -3 0 4 -9 11 -14 8 -22 -13 -47 -14 -16 -25 -33 -25
-36 0 -10 -38 -45 -43 -40 -3 3 -8 -7 -11 -22 -4 -15 -27 -51 -52 -79 -24 -29
-44 -55 -44 -59 0 -14 -39 -48 -49 -42 -5 4 -13 2 -16 -4 -4 -6 -3 -9 2 -8 13
5 16 -6 9 -30 -4 -12 -12 -20 -17 -17 -5 4 -9 -1 -9 -10 0 -9 -4 -14 -9 -10
-5 3 -11 -7 -13 -22 -2 -20 -8 -28 -21 -26 -10 0 -16 -1 -13 -4 2 -3 0 -18 -6
-34 -9 -25 -12 -28 -26 -17 -11 9 -14 10 -9 1 9 -14 -29 -93 -44 -93 -6 0 -7
5 -4 10 3 6 2 10 -3 10 -5 0 -9 -12 -9 -27 -1 -14 -7 -31 -15 -37 -8 -6 -15
-15 -16 -21 0 -5 -9 -12 -19 -16 -10 -4 -12 -8 -5 -8 9 -1 3 -12 -14 -30 -15
-17 -33 -27 -38 -23 -6 3 -5 -1 1 -10 11 -12 10 -18 -5 -32 -10 -9 -21 -14
-23 -11 -3 2 -6 -5 -6 -17 -1 -11 -11 -30 -21 -42 -10 -11 -22 -29 -25 -39 -4
-10 -12 -15 -17 -12 -6 4 -9 1 -8 -7 2 -7 -3 -12 -11 -10 -8 2 -11 -3 -8 -12
3 -8 -8 -29 -26 -48 -18 -18 -32 -35 -32 -38 0 -3 -3 -4 -7 -3 -4 2 -4 -5 -1
-14 5 -12 3 -14 -7 -8 -10 6 -12 4 -7 -9 4 -10 3 -15 -3 -11 -6 3 -10 -3 -10
-15 0 -12 -4 -19 -9 -16 -9 6 -26 -22 -22 -38 1 -5 -5 -6 -13 -3 -11 4 -13 1
-9 -10 5 -12 2 -15 -9 -10 -11 4 -15 0 -13 -11 2 -17 -19 -51 -61 -97 -12 -13
-19 -26 -16 -29 3 -3 -3 -6 -14 -6 -16 0 -17 -2 -4 -10 13 -9 7 -14 -13 -11
-4 0 -6 -2 -5 -6 2 -5 -1 -8 -7 -8 -5 0 -9 4 -7 8 1 5 -2 5 -8 2 -8 -5 -6 -12
4 -24 14 -15 14 -18 -3 -32 -9 -9 -33 -39 -51 -67 -18 -29 -37 -52 -42 -52 -5
0 -6 6 -2 13 4 6 4 9 -1 5 -4 -4 -15 -2 -24 5 -14 11 -14 10 -1 -6 8 -11 15
-28 17 -38 3 -17 0 -18 -20 -8 -19 11 -20 10 -10 -3 16 -19 6 -30 -18 -18 -12
7 -20 7 -24 0 -4 -6 -3 -10 2 -9 39 7 43 -14 8 -47 -14 -13 -26 -27 -27 -31
-3 -26 -11 -33 -24 -22 -10 9 -12 6 -9 -12 5 -27 -20 -59 -49 -60 -17 -1 -18
-2 -3 -6 22 -6 22 -7 -8 -39 -13 -14 -22 -31 -18 -37 4 -6 0 -8 -11 -4 -10 4
-15 3 -11 -3 9 -15 -20 -41 -34 -29 -8 6 -8 6 -1 -3 14 -17 12 -31 -4 -25 -10
4 -12 0 -9 -14 3 -11 0 -19 -8 -19 -7 0 -9 -3 -6 -7 4 -3 -3 -13 -14 -21 -17
-12 -18 -16 -8 -23 8 -5 9 -9 3 -9 -11 0 -14 -70 -2 -70 3 0 4 -13 2 -29 -3
-16 0 -32 6 -36 8 -5 8 -11 1 -19 -8 -9 -6 -13 5 -13 8 0 31 23 52 51 62 85
64 87 81 73 12 -9 13 -9 7 1 -4 6 -3 12 2 12 6 0 9 -26 9 -57 -2 -57 -1 -58
27 -61 19 -2 26 0 21 8 -9 15 53 83 79 86 20 2 22 -2 22 -41 -1 -24 -4 -41 -8
-38 -5 2 -8 -1 -8 -6 0 -6 4 -11 9 -11 5 0 9 -10 9 -22 0 -13 2 -62 4 -111 2
-55 -1 -86 -7 -83 -5 2 -11 -7 -11 -21 -2 -22 -1 -22 11 -7 10 15 12 9 9 -37
-1 -30 1 -58 5 -64 9 -13 8 -46 -2 -62 -5 -7 -5 -13 0 -13 4 0 8 -25 8 -55 0
-44 -3 -54 -14 -50 -12 5 -12 3 1 -12 8 -10 14 -31 13 -48 -1 -16 3 -33 9 -37
7 -5 3 -8 -9 -8 -12 0 -16 -3 -9 -8 6 -4 13 -19 16 -34 4 -21 1 -28 -11 -28
-13 0 -13 -2 -3 -9 10 -6 13 -26 10 -70 -2 -35 1 -63 7 -65 6 -3 4 -5 -3 -5
-9 -1 -10 -6 -2 -20 8 -16 6 -20 -8 -24 -15 -4 -14 -5 2 -6 20 -1 20 -1 0 -16
-12 -9 -13 -13 -4 -10 11 4 16 -1 17 -15 1 -11 -1 -20 -5 -20 -4 0 -5 -25 -4
-56 3 -35 0 -54 -6 -50 -5 3 -16 -2 -23 -12 -13 -15 -12 -16 3 -4 14 11 18 10
28 -9 11 -20 10 -21 -9 -16 -12 3 -19 1 -15 -4 3 -5 13 -9 22 -10 14 0 13 -2
-3 -9 -11 -5 -15 -9 -9 -9 7 -1 14 -19 16 -41 3 -37 -2 -45 -25 -41 -5 1 -6
-3 -2 -9 3 -6 11 -8 16 -5 5 4 9 -12 9 -35 0 -23 -4 -39 -9 -35 -5 3 -13 0
-17 -6 -4 -7 -3 -9 2 -6 6 3 16 2 24 -4 12 -7 12 -9 1 -9 -10 0 -11 -3 -2 -14
10 -11 8 -17 -6 -25 -17 -10 -17 -10 2 -11 15 0 17 -2 6 -9 -11 -7 -11 -10 0
-15 8 -3 3 -4 -10 -2 l-23 5 22 -21 c22 -21 22 -22 4 -29 -14 -5 -15 -8 -4 -8
18 -1 21 -41 3 -41 -6 0 -15 -4 -18 -10 -3 -6 1 -7 9 -4 11 4 16 0 16 -15 0
-29 -3 -36 -15 -33 -5 1 -3 -3 5 -10 16 -14 19 -36 7 -55 -5 -8 0 -9 15 -5 16
4 19 2 13 -8 -5 -8 -4 -11 3 -6 6 3 14 2 17 -4 5 -8 11 -8 19 -1 16 14 26 4
18 -17 -5 -15 -3 -15 11 -4 13 11 24 11 50 3 19 -7 49 -13 66 -16 18 -2 38 -8
45 -14 7 -6 16 -8 19 -4 4 3 7 -2 8 -13 0 -18 1 -18 9 1 5 11 9 14 9 7 1 -7 5
-10 11 -7 5 3 10 -2 10 -12 0 -14 2 -15 9 -4 6 9 15 11 27 6 11 -5 25 -7 32
-6 6 1 12 -5 12 -14 0 -8 5 -15 11 -15 5 0 7 5 4 10 -11 17 17 11 32 -8 8 -9
12 -12 9 -5 -5 9 2 9 26 2 18 -6 47 -13 63 -16 17 -3 32 -8 35 -12 3 -3 19 -8
35 -9 17 -2 31 -8 33 -13 2 -5 8 -9 13 -9 6 0 7 6 4 13 -4 6 1 3 9 -7 9 -11
16 -14 16 -8 0 9 5 10 19 3 10 -6 22 -7 27 -3 5 4 3 0 -3 -8 -10 -13 -8 -16 7
-16 10 0 16 5 13 10 -4 5 -1 6 6 2 7 -5 27 -10 44 -13 18 -3 34 -9 35 -14 2
-5 7 -7 11 -5 4 3 30 -2 57 -10 27 -9 60 -18 74 -20 13 -3 27 -8 30 -12 3 -4
19 -8 37 -9 42 -4 86 -21 79 -31 -3 -5 1 -9 8 -9 9 0 12 7 8 16 -5 13 -3 14
10 4 8 -7 18 -10 21 -6 4 3 7 1 7 -6 0 -7 4 -10 9 -7 13 8 42 -4 35 -15 -3 -5
0 -9 5 -9 6 0 11 6 11 13 0 7 3 8 8 2 4 -5 18 -11 31 -13 14 -1 34 -10 45 -20
11 -9 16 -11 12 -4 -8 13 6 17 18 5 4 -4 13 -8 19 -8 31 -1 77 -18 71 -26 -8
-13 10 -11 24 3 8 8 12 8 12 1 0 -6 19 -14 43 -18 54 -10 61 -11 67 -14 3 -2
12 -4 20 -6 8 -3 47 -12 85 -22 59 -16 70 -21 67 -38 -2 -18 -1 -18 8 -3 8 14
16 15 48 6 47 -13 48 -14 31 -35 -12 -16 -11 -16 8 0 22 20 60 16 75 -7 6 -8
8 -7 8 1 0 10 7 10 28 2 15 -6 40 -13 56 -15 17 -2 32 -7 35 -12 3 -4 11 -7
16 -7 35 -2 94 -18 90 -26 -4 -5 1 -6 10 -3 13 5 15 1 11 -21 -3 -15 -2 -24 2
-20 4 3 8 11 8 16 1 5 2 13 3 18 1 10 71 -11 71 -22 0 -5 5 -5 11 -2 5 4 19
-1 29 -10 16 -15 22 -15 35 -5 13 11 18 8 17 -10 0 -3 19 -5 43 -5 24 1 41 -3
39 -7 -3 -4 7 -8 21 -8 15 0 24 -4 20 -10 -3 -5 -1 -10 4 -10 6 0 11 5 11 11
0 8 4 9 13 0 8 -6 17 -8 20 -4 4 3 7 1 7 -6 0 -7 4 -10 8 -7 5 3 38 -4 73 -15
35 -11 73 -21 84 -22 13 -2 19 -9 17 -19 -1 -9 2 -19 7 -22 5 -3 8 0 7 7 -1
13 5 17 30 17 14 0 15 -2 3 -17 -12 -16 -11 -16 8 0 20 18 22 18 32 0 6 -11
11 -13 11 -5 0 8 5 10 13 5 6 -4 20 -6 30 -5 9 2 17 -2 17 -7 0 -6 12 -11 26
-11 21 0 25 -4 20 -18 -5 -14 -4 -14 9 2 13 17 15 17 15 4 0 -9 4 -20 10 -23
5 -3 7 0 4 9 -7 19 24 15 37 -5 7 -12 9 -12 9 0 0 11 4 10 16 -5 8 -10 12 -13
8 -5 -6 11 -3 13 12 7 10 -4 32 -10 47 -13 16 -3 31 -12 34 -20 5 -12 7 -12
15 -1 7 10 11 10 14 1 3 -7 12 -9 19 -7 8 3 28 -1 44 -9 17 -8 29 -11 28 -5
-1 6 4 13 12 16 9 3 11 0 6 -9 -5 -8 3 -2 18 14 23 24 44 32 70 28 4 0 7 4 7
10 0 5 5 7 10 4 6 -3 10 -2 10 3 0 6 7 13 16 16 12 5 15 2 10 -9 -3 -9 -2 -13
4 -10 6 3 10 13 10 21 0 8 6 14 13 14 7 0 30 9 51 21 21 11 40 18 43 15 3 -3
14 4 26 15 11 10 26 19 33 19 11 0 43 15 74 35 33 21 86 25 82 6 -3 -12 0 -12
12 -1 17 14 22 25 7 15 -5 -3 -12 -1 -16 5 -3 5 6 15 22 21 15 6 54 24 86 40
32 16 63 27 68 24 5 -4 9 -1 9 4 0 6 7 11 15 11 8 0 15 5 15 10 0 6 5 10 11
10 5 0 7 -6 3 -12 -5 -7 7 -1 25 15 29 24 50 32 74 28 4 0 7 3 7 7 0 5 19 17
43 28 23 10 45 23 49 29 5 7 8 7 8 0 0 -6 9 -11 19 -11 15 0 17 3 9 13 -8 10
-6 13 6 13 9 0 18 -1 19 -2 2 -2 11 3 19 10 9 7 24 10 34 6 13 -4 15 -3 7 3
-9 6 0 16 32 31 25 12 52 22 60 22 8 0 15 4 15 9 0 5 6 11 14 14 11 4 13 0 11
-15 -3 -11 -1 -17 3 -14 7 7 8 11 11 37 0 5 6 7 11 4 6 -3 10 -1 10 5 0 6 4 9
9 5 6 -3 14 3 20 12 6 10 11 13 11 6 0 -7 7 -10 15 -7 8 4 12 11 8 18 -4 6 2
4 12 -4 10 -8 16 -10 13 -5 -4 6 11 20 33 32 22 12 37 16 33 10 -3 -7 2 -3 10
7 9 11 16 16 16 12 0 -5 8 -2 17 5 15 12 16 12 8 -1 -4 -8 -5 -12 0 -8 4 4 14
3 22 -4 7 -6 16 -8 20 -4 3 3 1 6 -6 6 -7 0 -9 5 -5 12 4 7 3 8 -4 4 -7 -4
-12 -3 -12 3 0 6 18 9 43 7 23 -2 42 -5 42 -6 0 -3 48 -10 68 -11 16 0 17 -3
6 -17 -12 -16 -12 -16 5 -1 18 16 20 16 106 -6 8 -2 19 -4 23 -4 5 -1 5 -7 1
-13 -6 -10 -3 -9 8 0 11 9 23 10 35 4 30 -15 116 -14 147 3 15 8 32 13 36 10
5 -3 12 0 16 6 5 8 3 9 -6 4 -8 -5 -11 -4 -7 2 8 13 55 14 63 2 2 -4 11 -6 19
-2 9 3 15 -1 15 -8 0 -12 2 -12 9 0 6 10 18 11 37 6 103 -26 152 -29 181 -9
24 15 26 15 20 0 -4 -10 -3 -15 3 -11 6 3 10 13 10 22 0 10 6 13 16 9 8 -3 12
-2 9 4 -5 9 8 14 19 8 3 -2 15 7 28 19 19 18 27 20 37 10 7 -6 12 -7 11 -2 -6
28 0 37 15 25 8 -7 12 -17 8 -23 -3 -6 -1 -7 5 -3 6 4 9 13 6 20 -3 7 6 21 20
30 15 9 26 13 26 9 0 -5 4 -3 8 2 4 6 22 21 40 34 23 16 32 30 32 51 0 26 -4
29 -42 35 -70 11 -80 15 -75 35 7 27 -5 39 -41 43 -18 2 -35 7 -39 10 -3 4
-15 7 -25 7 -22 0 -24 32 -3 50 9 7 13 20 10 30 -3 11 3 21 17 29 22 11 6 8
-27 -5 -10 -4 -15 0 -15 11 0 9 5 13 10 10 6 -3 10 -1 10 6 0 7 3 10 6 6 4 -3
13 1 22 9 8 9 23 13 34 11 10 -3 16 -1 12 4 -3 5 2 9 10 9 9 0 16 5 16 11 0 6
9 9 20 6 11 -3 18 -2 15 2 -6 10 43 33 55 26 4 -3 11 2 14 11 4 10 14 14 25
11 12 -3 22 1 25 10 3 8 10 11 16 8 5 -3 10 -2 10 3 0 4 16 16 36 26 32 15 36
20 32 46 -3 17 -2 30 1 30 3 0 6 20 7 45 0 25 -3 45 -8 45 -4 0 -8 -5 -8 -12
0 -6 -3 -8 -7 -5 -3 4 2 16 12 27 11 12 13 20 6 20 -7 0 -9 5 -6 10 3 6 -4 10
-17 10 -22 1 -22 1 5 16 22 12 25 17 15 28 -10 10 -14 11 -16 2 -3 -15 -62
-38 -62 -25 0 6 -4 8 -8 5 -5 -3 -9 1 -9 8 0 7 6 13 13 13 7 0 11 -4 8 -9 -3
-4 2 -8 10 -8 9 0 16 8 16 18 0 14 2 15 10 2 8 -13 10 -12 10 3 0 9 7 17 15
17 8 0 15 5 15 11 0 5 4 8 9 4 5 -3 13 -1 16 5 4 6 3 10 -2 9 -22 -4 -35 2
-30 15 4 11 1 14 -11 10 -9 -2 -7 1 6 7 12 7 22 16 22 21 0 5 -10 7 -22 3 -22
-6 -22 -5 -4 9 10 9 23 13 29 9 6 -3 7 -1 3 5 -5 8 -15 8 -34 1 -20 -8 -24 -7
-16 1 7 7 23 13 36 13 14 1 25 8 25 15 0 7 -5 11 -11 9 -6 -3 -19 0 -28 5 -14
7 -16 5 -12 -9 5 -16 4 -16 -6 1 -16 24 6 41 30 23 8 -6 12 -7 8 -3 -4 5 -3
15 4 23 19 24 1 25 -55 4 -48 -17 -55 -18 -53 -4 2 13 50 41 74 43 32 2 40 12
32 40 -7 25 -6 30 8 30 16 1 16 1 0 13 -18 14 -19 32 -3 57 13 21 14 53 1 40
-5 -5 -19 -10 -31 -10 -15 0 -12 4 13 17 24 12 30 18 20 24 -7 5 -8 9 -3 9 6
0 10 11 10 24 0 15 -5 22 -13 19 -8 -3 -10 0 -6 10 3 10 -1 17 -13 20 -12 3
-9 5 9 6 20 1 26 6 25 20 -1 17 -4 17 -34 5 -18 -8 -33 -12 -33 -9 0 3 -10 1
-21 -6 -17 -9 -20 -8 -14 1 6 10 1 11 -19 6 -17 -4 -26 -2 -26 5 0 7 3 9 6 6
4 -3 15 -2 25 4 13 6 19 6 19 -1 0 -5 5 -10 11 -10 5 0 8 4 4 9 -3 6 3 15 14
20 14 8 21 8 25 -2 5 -9 7 -9 12 1 3 6 12 12 20 12 8 0 14 7 14 16 0 10 -6 14
-15 10 -8 -3 -15 -1 -15 4 0 6 -4 10 -10 10 -5 0 -6 -7 -3 -17 4 -11 3 -14 -5
-9 -7 4 -18 4 -24 -1 -21 -12 -41 -13 -57 0 -12 10 -14 9 -8 -7 6 -16 5 -17
-8 -6 -12 10 -13 16 -4 27 7 8 15 10 18 6 9 -12 31 -15 31 -4 0 5 23 14 50 21
53 13 58 18 38 39 -8 9 -8 11 -2 8 7 -4 14 0 17 8 5 11 1 12 -19 5 -38 -15
-43 -11 -10 6 20 11 25 18 16 24 -10 6 -9 9 1 14 17 7 -66 0 -103 -9 -16 -4
-28 -5 -28 -2 0 3 34 13 75 22 41 10 78 21 81 26 3 5 2 9 -3 8 -4 -1 -15 -1
-23 1 -11 1 -10 3 4 9 11 4 20 15 22 24 1 10 -1 15 -5 12 -4 -2 -7 20 -7 51 1
33 5 53 11 50 6 -2 11 4 11 14 0 10 -3 17 -6 15 -3 -2 -6 12 -6 31 0 19 4 34
9 34 4 0 5 -4 2 -10 -3 -5 -1 -10 4 -10 15 0 14 15 -1 28 -15 12 -15 85 -1 89
6 2 22 -10 36 -27 33 -38 59 -40 53 -4 l-5 27 20 -22 c28 -30 43 -28 38 5 0 4
5 11 13 15 10 7 10 9 1 9 -7 0 -13 6 -13 13 0 6 13 -1 28 -18 36 -40 54 -43
48 -9 -5 25 -4 26 14 9 11 -10 17 -23 13 -29 -4 -7 -2 -8 5 -1 6 6 12 27 14
47 1 20 4 36 7 35 14 -3 50 15 55 28 3 10 0 12 -11 8 -12 -5 -14 -3 -8 7 5 8
4 11 -3 6 -6 -3 -24 6 -41 21 -16 16 -37 34 -46 41 -8 7 -12 18 -9 24 4 7 2 8
-5 4 -7 -5 -23 5 -38 23 -15 17 -34 31 -41 31 -12 0 -12 3 -1 17 9 11 10 14 2
10 -15 -9 -65 21 -57 34 3 5 0 9 -6 9 -7 0 -9 7 -6 16 5 14 4 15 -9 4 -12 -10
-15 -9 -15 6 0 16 -2 17 -10 4 -9 -13 -10 -13 -10 0 0 8 -9 21 -20 28 -12 7
-18 17 -15 22 3 6 -1 7 -9 4 -10 -4 -16 -1 -16 9 0 8 -7 18 -16 21 -8 3 -12
11 -8 17 4 8 3 9 -5 5 -7 -5 -20 1 -30 13 -10 12 -22 21 -27 21 -5 0 -17 17
-26 38 -10 21 -15 26 -11 12 5 -24 4 -23 -27 8 -20 21 -29 40 -26 50 5 13 3
12 -9 -2 -15 -19 -15 -19 -15 2 0 12 -3 21 -7 21 -5 -1 -15 -1 -23 1 -11 1 -9
4 5 10 16 7 17 9 3 9 -24 1 -52 60 -37 78 9 11 8 12 -5 7 -11 -4 -16 -1 -16
10 0 9 -5 16 -11 16 -6 0 -9 9 -6 19 3 12 -1 22 -10 25 -8 3 -11 11 -8 16 5 8
12 7 23 -2 15 -12 16 -11 4 4 -8 10 -20 14 -29 11 -11 -4 -14 -2 -9 5 3 6 -2
16 -11 22 -16 10 -16 11 -1 6 10 -3 20 0 24 6 4 6 3 8 -2 5 -11 -6 -39 8 -40
20 -2 25 -17 63 -25 63 -4 0 -6 9 -4 20 2 11 0 20 -4 20 -10 0 -35 52 -32 68
1 6 -2 12 -7 12 -6 0 -13 12 -17 27 -3 15 -11 31 -17 34 -5 4 -2 14 9 24 17
18 17 19 -1 12 -22 -9 -36 7 -36 39 0 12 -7 24 -15 28 -8 3 -15 10 -15 16 0 6
4 9 9 5 5 -3 13 0 17 6 4 8 3 9 -4 5 -11 -6 -47 25 -47 42 -1 21 -27 51 -40
46 -8 -4 -23 2 -33 13 -9 10 -13 14 -9 7 4 -7 4 -14 0 -17 -12 -7 -87 -2 -100
6 -6 4 -14 3 -18 -3 -7 -12 -45 -14 -45 -2 0 5 -6 9 -14 9 -8 0 -12 -6 -9 -13
5 -14 -22 -13 -34 1 -5 4 -1 5 7 0 8 -5 12 -4 7 0 -4 5 -18 10 -30 12 -17 2
-19 1 -7 -7 18 -12 15 -12 -81 -14 -63 -1 -76 1 -71 13 3 8 1 12 -5 8 -6 -4
-23 6 -39 20 -16 15 -33 26 -39 24 -5 -1 -7 1 -3 5 4 4 -5 17 -21 28 -15 12
-29 26 -30 31 -1 6 -13 16 -27 23 -14 7 -22 18 -18 24 5 7 2 9 -9 5 -8 -3 -21
1 -27 9 -7 8 -9 14 -4 14 5 0 -6 9 -23 20 -18 11 -33 27 -33 35 0 9 -4 13 -10
10 -5 -3 -10 0 -10 7 0 9 -3 9 -10 -2 -8 -12 -10 -10 -10 8 0 13 -4 20 -10 17
-5 -3 -10 0 -10 8 0 22 -31 30 -160 41 -30 2 -59 5 -63 5 -5 1 -5 6 -2 11 9
14 -8 13 -23 -2 -9 -9 -12 -8 -12 7 0 14 -3 16 -8 8 -5 -8 -21 -11 -42 -7 -19
3 -43 5 -52 5 -21 0 -23 10 -5 29 6 8 3 7 -9 -3 -15 -12 -35 -17 -67 -15 -25
2 -43 6 -40 11 2 4 -1 7 -6 7 -6 0 -11 -5 -11 -11 0 -6 -5 -7 -12 -2 -7 4 -24
8 -38 9 -14 0 -24 6 -22 13 1 8 -2 10 -10 5 -25 -16 -58 -13 -58 4 0 10 -3 13
-8 7 -4 -6 -14 -10 -22 -9 -8 0 -23 2 -33 2 -10 1 -16 6 -13 10 3 5 -1 9 -9 9
-8 0 -12 -4 -9 -9 3 -4 -6 -7 -20 -6 -15 1 -26 6 -26 11 0 4 -4 6 -9 3 -5 -4
-12 0 -14 6 -4 10 -6 9 -6 -1 -1 -11 -4 -11 -18 0 -9 8 -14 9 -11 4 4 -7 -6
-9 -28 -7 -22 3 -32 8 -27 16 4 8 3 8 -6 0 -8 -7 -30 -8 -69 -2 -114 16 -123
19 -115 31 5 9 3 9 -8 0 -9 -7 -28 -9 -54 -4 -22 4 -51 7 -65 6 -14 0 -27 3
-30 7 -3 4 -29 8 -57 9 -54 3 -61 12 -38 49 8 13 6 13 -8 2 -9 -8 -16 -17 -15
-20 3 -27 -3 -31 -29 -21 -14 5 -32 8 -40 5 -19 -8 -44 4 -36 18 5 7 2 7 -8
-1 -19 -15 -55 -9 -51 8 3 11 1 12 -9 2 -15 -15 -33 -17 -24 -4 3 5 1 13 -5
16 -6 4 -9 1 -8 -6 4 -16 -20 -19 -45 -6 -16 7 -16 11 -5 25 12 15 11 16 -4 3
-10 -7 -15 -18 -11 -24 4 -6 -4 -7 -23 -2 -16 4 -35 8 -42 8 -7 0 -11 6 -8 12
2 6 -2 12 -9 12 -7 0 -11 -5 -9 -11 3 -8 -9 -10 -36 -8 -28 3 -40 9 -41 21 0
10 -2 11 -6 4 -2 -7 -9 -13 -14 -13 -6 0 -7 6 -3 13 6 9 4 9 -8 -1 -11 -8 -26
-10 -45 -5 -15 4 -36 6 -45 4 -10 -1 -18 2 -18 8 0 5 -10 8 -22 6 -30 -6 -55
2 -62 21 -4 10 -2 13 6 8 8 -5 9 -2 4 12 -11 26 -13 154 -3 154 5 0 1 7 -8 16
-8 9 -24 14 -35 11 -10 -3 -20 -1 -22 4 -2 4 -25 11 -53 14 -27 3 -63 8 -80
10 -16 2 -36 4 -43 4 -7 1 -10 6 -6 12 5 8 1 8 -14 0 -17 -9 -21 -8 -24 7 -2
10 -6 12 -8 5z m-2345 -2259 c-9 -9 -19 -13 -23 -10 -3 4 0 11 8 16 24 15 33
11 15 -6z m6000 -354 c-3 -5 -14 -10 -23 -9 -14 0 -13 2 3 9 27 11 27 11 20 0z
m-125 -8 c0 -14 -23 -32 -39 -31 -11 0 -12 2 -3 6 6 2 10 9 7 14 -4 5 2 6 11
2 12 -4 15 -3 10 5 -4 7 -2 12 3 12 6 0 11 -4 11 -8z m40 -6 c0 -2 -7 -9 -15
-16 -13 -11 -14 -10 -9 4 5 14 24 23 24 12z m-156 -14 c3 -5 -1 -9 -9 -9 -8 0
-12 4 -9 9 3 4 7 8 9 8 2 0 6 -4 9 -8z m-77 -19 c-4 -3 -2 -12 4 -19 7 -8 6
-14 -2 -20 -8 -4 -9 -3 -5 5 4 6 0 14 -9 17 -13 6 -14 8 -3 15 16 10 24 12 15
2z m39 -9 c-1 -8 -6 -17 -11 -21 -4 -4 -5 -2 -1 5 4 6 2 12 -3 12 -6 0 -11 4
-11 8 0 5 6 9 14 9 7 0 13 -6 12 -13z m94 12 c0 -2 -9 -6 -20 -9 -11 -3 -20
-1 -20 4 0 5 9 9 20 9 11 0 20 -2 20 -4z m-240 -30 c0 -2 -7 -7 -16 -10 -8 -3
-12 -2 -9 4 6 10 25 14 25 6z m78 -21 c-3 -3 -9 2 -12 12 -6 14 -5 15 5 6 7
-7 10 -15 7 -18z m-123 5 c-3 -5 -1 -10 5 -10 6 0 8 -5 4 -11 -4 -8 -9 -7 -15
2 -7 12 -3 29 7 29 3 0 2 -4 -1 -10z m105 -6 c0 -2 -7 -4 -15 -4 -8 0 -15 4
-15 10 0 5 7 7 15 4 8 -4 15 -8 15 -10z m-150 -9 c-7 -9 -15 -13 -19 -10 -3 3
1 10 9 15 21 14 24 12 10 -5z m104 3 c-3 -5 -10 -6 -15 -3 -5 4 -9 1 -9 -6 0
-7 -3 -10 -6 -6 -9 9 3 24 20 24 8 0 13 -4 10 -9z m-125 -20 c11 -15 11 -18
-1 -18 -7 0 -14 10 -15 21 -1 12 -1 20 0 18 2 -2 9 -12 16 -21z m-29 0 c0 -4
-6 -8 -12 -8 -9 0 -8 -4 2 -10 8 -5 11 -10 5 -10 -5 1 -18 7 -28 14 -13 10
-15 15 -5 18 21 7 38 5 38 -4z m75 2 c-3 -5 -12 -10 -18 -10 -7 0 -6 4 3 10
19 12 23 12 15 0z m-176 -7 c-3 -20 2 -30 16 -30 10 0 13 6 9 19 -3 10 0 18 6
18 6 0 10 -10 8 -22 -2 -13 -7 -23 -13 -23 -5 0 -15 -3 -21 -7 -5 -4 -19 -5
-30 -4 -10 2 -25 -1 -31 -7 -7 -5 -13 -6 -13 -2 0 4 -7 2 -15 -5 -8 -6 -19 -9
-25 -5 -5 3 -10 1 -10 -6 0 -7 -6 -5 -13 6 -10 12 -18 15 -28 9 -8 -5 -21 -9
-29 -9 -8 0 -25 -6 -36 -13 -18 -10 -24 -9 -35 6 -12 15 -12 16 2 4 14 -10 18
-10 22 2 3 8 14 13 24 11 10 -1 24 2 31 8 6 5 12 6 12 2 0 -4 7 -2 15 5 11 9
15 9 15 1 0 -7 8 -6 24 4 15 10 27 12 30 6 4 -5 19 -8 34 -6 15 2 30 4 35 4 4
1 7 5 7 10 0 5 -10 7 -22 4 -22 -4 -22 -4 2 10 31 19 30 18 29 10z m541 -25
c0 -5 -5 -8 -11 -8 -5 0 -7 5 -4 10 10 15 -5 12 -22 -6 -9 -8 -22 -13 -29 -10
-7 3 -16 1 -19 -4 -4 -6 -12 -10 -18 -10 -7 0 -4 5 6 11 9 6 14 16 11 22 -5 9
-4 9 6 0 7 -6 19 -9 28 -5 13 5 13 7 -4 14 -17 7 -16 8 3 4 13 -2 26 0 29 6 6
10 24 -8 24 -24z m-483 -10 c-3 -8 -6 -5 -6 6 -1 11 2 17 5 13 3 -3 4 -12 1
-19z m383 13 c0 -15 -32 -23 -44 -11 -8 8 -6 9 5 5 10 -4 20 -2 24 4 8 13 15
14 15 2z m-52 -23 c7 -7 12 -16 12 -22 0 -5 -6 -1 -14 9 -12 16 -16 17 -30 6
-9 -8 -16 -9 -16 -3 0 9 14 19 31 21 3 1 10 -4 17 -11z m-74 -20 c-19 -21 -19
-21 1 -15 20 7 20 7 1 -8 -11 -8 -25 -15 -30 -15 -6 0 -4 5 4 10 8 5 13 10 10
11 -3 0 -13 2 -23 4 -13 2 -17 -1 -13 -11 5 -12 2 -12 -17 -3 -28 15 -37 24
-15 16 10 -3 20 -2 23 4 4 5 10 7 15 4 5 -3 11 -1 15 5 4 6 10 8 15 5 5 -3 11
-1 15 5 3 5 9 10 12 10 3 0 -2 -10 -13 -22z m226 2 c0 -5 -4 -10 -10 -10 -5 0
-10 5 -10 10 0 6 5 10 10 10 6 0 10 -4 10 -10z m-170 -10 c-8 -5 -19 -10 -25
-10 -5 0 -3 5 5 10 8 5 20 10 25 10 6 0 3 -5 -5 -10z m140 0 c0 -5 -9 -7 -20
-5 -11 2 -20 -1 -20 -6 0 -6 -5 -7 -11 -3 -8 4 -8 8 0 13 16 10 51 11 51 1z
m-790 -10 c0 -5 -2 -10 -4 -10 -3 0 -8 5 -11 10 -3 6 -1 10 4 10 6 0 11 -4 11
-10z m-43 -22 c-3 -8 -6 -5 -6 6 -1 11 2 17 5 13 3 -3 4 -12 1 -19z m525 3
c-5 -14 -4 -14 12 -2 12 11 19 11 27 3 5 -7 6 -10 3 -7 -4 2 -16 -1 -28 -7
-11 -7 -29 -11 -38 -9 -10 1 -18 -4 -18 -11 -1 -8 -6 -6 -15 6 -15 20 -15 20
-15 0 0 -15 -2 -16 -9 -5 -11 17 -41 7 -41 -14 0 -8 -7 -15 -16 -15 -14 0 -14
1 0 16 9 8 14 19 12 23 -3 4 0 8 7 8 44 3 67 8 67 15 0 4 5 8 11 8 5 0 7 -4 4
-10 -3 -5 1 -10 10 -10 10 0 15 6 12 13 -3 8 1 14 8 14 8 0 11 -7 7 -16z m243
9 c3 -6 -1 -7 -10 -4 -9 4 -25 -2 -36 -12 -15 -14 -20 -15 -17 -4 5 25 51 39
63 20z m192 -10 c1 -13 -4 -20 -15 -19 -10 0 -12 3 -5 5 7 3 9 12 6 20 -3 8
-1 14 4 14 5 0 9 -9 10 -20z m-267 1 c0 -5 -14 -14 -32 -20 -34 -12 -32 -6 4
15 13 6 24 12 26 13 1 1 2 -3 2 -8z m231 -4 c-6 -8 -8 -17 -4 -20 3 -4 1 -7
-5 -7 -13 0 -16 22 -5 33 12 13 25 7 14 -6z m63 -2 c-4 -8 -8 -15 -10 -15 -2
0 -4 7 -4 15 0 8 4 15 10 15 5 0 7 -7 4 -15z m-1039 -24 c-6 -5 -25 10 -25 20
0 5 6 4 14 -3 8 -7 12 -15 11 -17z m675 10 c0 -5 -7 -11 -14 -14 -10 -4 -13
-1 -9 9 6 15 23 19 23 5z m-240 -11 c0 -5 -4 -10 -10 -10 -5 0 -10 5 -10 10 0
6 5 10 10 10 6 0 10 -4 10 -10z m197 -5 c0 -8 -4 -15 -9 -15 -10 0 -11 14 -1
23 9 10 10 9 10 -8z m415 -12 c-3 -16 -7 -22 -10 -15 -4 13 4 42 11 42 2 0 2
-12 -1 -27z m-562 13 c0 -3 -4 -8 -10 -11 -5 -3 -10 -1 -10 4 0 6 5 11 10 11
6 0 10 -2 10 -4z m530 -6 c0 -5 -5 -10 -11 -10 -5 0 -7 5 -4 10 3 6 8 10 11
10 2 0 4 -4 4 -10z m-637 -17 c9 0 17 4 17 9 0 5 5 6 10 3 6 -3 10 -11 10 -17
0 -6 -3 -9 -6 -5 -4 3 -22 0 -40 -8 -19 -8 -34 -11 -34 -8 0 3 -7 -1 -16 -8
-14 -11 -18 -11 -29 4 -14 20 -26 12 -18 -11 4 -13 1 -12 -11 3 -15 17 -17 17
-12 3 3 -10 1 -18 -4 -18 -14 0 -12 26 3 37 6 6 24 8 40 6 15 -2 27 1 27 7 0
5 5 10 11 10 5 0 7 -4 4 -10 -3 -5 1 -10 9 -10 10 0 13 6 10 18 -4 10 -3 13 3
6 4 -6 16 -11 26 -11z m220 4 c-3 -5 -12 -6 -20 -3 -11 4 -13 2 -10 -9 4 -8 2
-17 -2 -19 -5 -3 -7 5 -6 17 1 12 3 22 4 22 14 4 38 -2 34 -8z m-63 -2 c0 -7
-39 -26 -62 -30 -12 -3 -24 -9 -27 -13 -3 -5 -15 -6 -26 -1 -11 4 -15 8 -10 9
6 1 17 3 25 5 8 2 25 6 37 9 13 3 31 9 40 15 21 12 23 13 23 6z m456 -13 c1
-7 0 -8 -3 -2 -8 16 -23 12 -17 -5 4 -8 1 -15 -5 -15 -12 0 -15 23 -4 34 9 9
26 2 29 -12z m34 4 c0 -3 -4 -8 -10 -11 -5 -3 -10 -1 -10 4 0 6 5 11 10 11 6
0 10 -2 10 -4z m-486 -24 c2 -4 -7 -8 -22 -9 -24 -2 -24 -1 -7 7 11 5 21 9 22
9 1 1 4 -3 7 -7z m-146 -13 c-2 -6 5 -13 15 -14 11 -2 22 -6 25 -9 8 -9 -30
-2 -45 7 -7 5 -19 5 -25 2 -7 -4 -4 1 6 9 23 19 27 20 24 5z m87 -9 c-3 -5
-12 -10 -18 -10 -7 0 -6 4 3 10 19 12 23 12 15 0z m-149 -22 c4 4 2 -1 -5 -10
-7 -10 -19 -18 -25 -18 -6 0 -4 5 4 10 14 9 7 14 -13 11 -5 -1 -6 3 -2 9 5 8
11 8 19 1 7 -6 17 -7 22 -3z m-52 -14 c8 -20 8 -20 -24 -28 l-25 -7 25 15 c14
9 19 15 13 16 -7 0 -13 5 -13 10 0 16 17 11 24 -6z m97 3 c-7 -7 -14 -8 -21
-1 -6 6 -2 10 12 11 16 2 18 -1 9 -10z m649 -19 c0 6 4 12 9 12 5 0 7 -9 4
-19 -6 -23 -42 -35 -60 -20 -6 6 -18 7 -24 3 -8 -5 -9 -3 -5 5 5 7 14 10 21 7
8 -3 19 2 26 10 10 12 14 12 20 2 7 -10 9 -10 9 0z m-50 -38 c0 -5 -5 -10 -11
-10 -5 0 -7 5 -4 10 3 6 8 10 11 10 2 0 4 -4 4 -10z m26 -167 c-2 -2 -11 0
-20 3 -14 5 -15 9 -5 15 12 7 34 -10 25 -18z m-34 -7 c7 4 8 2 4 -5 -6 -9 -11
-9 -22 0 -7 6 -11 16 -7 23 5 7 9 5 11 -7 2 -9 8 -14 14 -11z m-2 -41 c-9 -11
-9 -15 -1 -15 6 0 14 7 17 15 4 8 10 12 15 9 11 -6 12 -25 2 -22 -5 1 -18 -3
-30 -10 -19 -10 -23 -10 -23 1 0 7 5 18 12 25 17 17 23 15 8 -3z m53 -176 c-6
-6 -9 -17 -6 -25 3 -8 -11 -21 -36 -33 -32 -17 -39 -18 -35 -6 4 8 9 13 13 10
12 -7 52 25 45 37 -4 6 0 14 7 19 19 12 25 11 12 -2z m-37 -18 c-8 -12 -46
-21 -46 -11 0 5 10 11 23 13 12 2 23 5 25 6 2 0 1 -3 -2 -8z m-319 -347 c-3
-4 4 -15 16 -25 19 -16 20 -20 7 -29 -17 -11 -51 -3 -62 14 -5 6 1 19 13 29
20 16 40 25 26 11z m-47 -45 c0 -3 -6 -6 -14 -6 -8 0 -11 8 -8 20 4 14 7 16
13 5 5 -7 9 -16 9 -19z m-3205 -789 c3 -5 1 -10 -4 -10 -6 0 -11 5 -11 10 0 6
2 10 4 10 3 0 8 -4 11 -10z"/>
<path d="M5915 3386 c-17 -12 -17 -13 3 -11 26 2 37 11 24 19 -5 3 -17 -1 -27
-8z"/>
<path d="M5960 3250 c-9 -6 -10 -10 -3 -10 6 0 15 5 18 10 8 12 4 12 -15 0z"/>
<path d="M6285 2351 c-3 -5 0 -13 6 -17 8 -5 9 -3 4 6 -5 8 -3 11 6 8 8 -3 13
-11 11 -17 -1 -7 2 -10 8 -6 8 5 7 11 -1 21 -13 16 -25 18 -34 5z"/>
<path d="M3250 6150 c0 -5 5 -10 11 -10 5 0 7 5 4 10 -3 6 -8 10 -11 10 -2 0
-4 -4 -4 -10z"/>
<path d="M2295 6121 c-3 -5 -2 -12 3 -15 5 -3 9 1 9 9 0 17 -3 19 -12 6z"/>
<path d="M1886 6112 c-3 -5 1 -9 9 -9 8 0 12 4 9 9 -3 4 -7 8 -9 8 -2 0 -6 -4
-9 -8z"/>
<path d="M2036 6097 c3 -10 9 -15 12 -12 3 3 0 11 -7 18 -10 9 -11 8 -5 -6z"/>
<path d="M2234 6102 c4 -7 2 -21 -5 -30 -12 -15 -11 -15 6 0 16 15 17 20 6 30
-11 11 -13 10 -7 0z"/>
<path d="M2010 6090 c0 -5 5 -10 11 -10 5 0 7 5 4 10 -3 6 -8 10 -11 10 -2 0
-4 -4 -4 -10z"/>
<path d="M2316 6048 c3 -5 10 -6 15 -3 13 9 11 12 -6 12 -8 0 -12 -4 -9 -9z"/>
<path d="M2795 6050 c-3 -5 -1 -10 4 -10 6 0 11 5 11 10 0 6 -2 10 -4 10 -3 0
-8 -4 -11 -10z"/>
<path d="M2700 6035 c0 -2 6 -8 13 -14 10 -8 14 -7 14 2 0 8 -6 14 -14 14 -7
0 -13 -1 -13 -2z"/>
<path d="M2751 6024 c7 -8 6 -14 -1 -17 -6 -3 -6 -5 1 -3 17 3 20 33 3 33 -10
0 -11 -4 -3 -13z"/>
<path d="M3373 6018 c1 -15 6 -23 11 -18 4 4 4 16 -2 26 -9 16 -10 14 -9 -8z"/>
<path d="M2806 6015 c-3 -8 -1 -15 4 -15 6 0 10 7 10 15 0 8 -2 15 -4 15 -2 0
-6 -7 -10 -15z"/>
<path d="M2775 5990 c3 -5 8 -10 11 -10 2 0 4 5 4 10 0 6 -5 10 -11 10 -5 0
-7 -4 -4 -10z"/>
<path d="M2821 5991 c-8 -5 -9 -11 -3 -15 5 -3 12 1 16 9 6 17 6 18 -13 6z"/>
<path d="M3337 5976 c-3 -8 3 -22 14 -32 20 -18 27 -40 9 -29 -5 3 -10 1 -10
-4 0 -6 4 -11 9 -11 16 0 23 20 12 34 -6 7 -7 16 -3 20 4 4 0 6 -8 4 -10 -2
-14 3 -12 15 3 20 -4 23 -11 3z"/>
<path d="M1755 5971 c-3 -5 -2 -12 3 -15 5 -3 9 1 9 9 0 17 -3 19 -12 6z"/>
<path d="M3376 5968 c3 -5 10 -6 15 -3 13 9 11 12 -6 12 -8 0 -12 -4 -9 -9z"/>
<path d="M3509 5933 c-13 -16 -12 -17 4 -4 16 13 21 21 13 21 -2 0 -10 -8 -17
-17z"/>
<path d="M3444 5933 c4 -4 16 -8 28 -10 28 -4 18 6 -12 12 -12 2 -20 1 -16 -2z"/>
<path d="M3415 5921 c-6 -11 13 -26 22 -17 4 3 1 6 -6 6 -7 0 -9 5 -6 10 3 6
4 10 1 10 -3 0 -7 -4 -11 -9z"/>
<path d="M3707 5909 c7 -7 15 -10 18 -7 3 3 -2 9 -12 12 -14 6 -15 5 -6 -5z"/>
<path d="M3485 5890 c-3 -6 1 -7 9 -4 18 7 21 14 7 14 -6 0 -13 -4 -16 -10z"/>
<path d="M3573 5887 c0 -7 9 -13 19 -13 10 0 18 1 18 3 0 1 -8 7 -18 12 -13 7
-19 6 -19 -2z"/>
<path d="M3806 5888 c3 -5 10 -6 15 -3 13 9 11 12 -6 12 -8 0 -12 -4 -9 -9z"/>
<path d="M3893 5865 c0 -8 4 -12 9 -9 5 3 6 10 3 15 -9 13 -12 11 -12 -6z"/>
<path d="M3753 5855 c0 -8 4 -12 9 -9 5 3 6 10 3 15 -9 13 -12 11 -12 -6z"/>
<path d="M3934 5856 c1 -8 5 -18 8 -22 4 -3 5 1 4 10 -1 8 -5 18 -8 22 -4 3
-5 -1 -4 -10z"/>
<path d="M1670 5850 c0 -5 5 -10 10 -10 6 0 10 5 10 10 0 6 -4 10 -10 10 -5 0
-10 -4 -10 -10z"/>
<path d="M3852 5851 c-11 -7 -11 -9 0 -14 9 -3 15 1 15 9 0 8 -1 14 -1 14 -1
0 -7 -4 -14 -9z"/>
<path d="M4026 5832 c-2 -4 4 -8 14 -8 10 0 16 4 14 8 -3 4 -9 8 -14 8 -5 0
-11 -4 -14 -8z"/>
<path d="M4276 5832 c-3 -4 4 -9 15 -9 23 -2 25 3 4 10 -8 4 -16 3 -19 -1z"/>
<path d="M4234 5812 c4 -3 14 -7 22 -8 9 -1 13 0 10 4 -4 3 -14 7 -22 8 -9 1
-13 0 -10 -4z"/>
<path d="M1615 5790 c-3 -5 -1 -10 4 -10 6 0 11 5 11 10 0 6 -2 10 -4 10 -3 0
-8 -4 -11 -10z"/>
<path d="M4535 5790 c-3 -5 -1 -10 4 -10 6 0 11 5 11 10 0 6 -2 10 -4 10 -3 0
-8 -4 -11 -10z"/>
<path d="M4430 5769 c0 -5 5 -7 10 -4 6 3 10 8 10 11 0 2 -4 4 -10 4 -5 0 -10
-5 -10 -11z"/>
<path d="M5056 5768 c3 -5 10 -6 15 -3 13 9 11 12 -6 12 -8 0 -12 -4 -9 -9z"/>
<path d="M1633 5753 c4 -3 -1 -16 -10 -27 -18 -21 -18 -21 5 -2 24 21 29 36
10 36 -6 0 -8 -3 -5 -7z"/>
<path d="M4585 5750 c-3 -6 1 -7 9 -4 18 7 21 14 7 14 -6 0 -13 -4 -16 -10z"/>
<path d="M4739 5758 c-5 -18 -6 -38 -1 -34 7 8 12 36 6 36 -2 0 -4 -1 -5 -2z"/>
<path d="M4856 5748 c3 -5 10 -6 15 -3 13 9 11 12 -6 12 -8 0 -12 -4 -9 -9z"/>
<path d="M4935 5731 c-3 -5 -2 -12 3 -15 5 -3 9 1 9 9 0 17 -3 19 -12 6z"/>
<path d="M4810 5709 c0 -5 5 -7 10 -4 6 3 10 8 10 11 0 2 -4 4 -10 4 -5 0 -10
-5 -10 -11z"/>
<path d="M5110 5690 c0 -5 5 -10 10 -10 6 0 10 5 10 10 0 6 -4 10 -10 10 -5 0
-10 -4 -10 -10z"/>
<path d="M5150 5676 c0 -2 7 -7 16 -10 8 -3 12 -2 9 4 -6 10 -25 14 -25 6z"/>
<path d="M1470 5590 c0 -5 5 -10 11 -10 5 0 7 5 4 10 -3 6 -8 10 -11 10 -2 0
-4 -4 -4 -10z"/>
<path d="M1393 5575 c0 -8 4 -12 9 -9 5 3 6 10 3 15 -9 13 -12 11 -12 -6z"/>
<path d="M1455 5550 c-3 -5 -1 -10 4 -10 6 0 11 5 11 10 0 6 -2 10 -4 10 -3 0
-8 -4 -11 -10z"/>
<path d="M5465 5530 c-3 -6 1 -7 9 -4 18 7 21 14 7 14 -6 0 -13 -4 -16 -10z"/>
<path d="M5510 5510 c0 -5 5 -10 11 -10 5 0 7 5 4 10 -3 6 -8 10 -11 10 -2 0
-4 -4 -4 -10z"/>
<path d="M1347 5369 c7 -7 15 -10 18 -7 3 3 -2 9 -12 12 -14 6 -15 5 -6 -5z"/>
<path d="M5645 5369 c-3 -4 2 -6 10 -5 21 3 28 13 10 13 -9 0 -18 -4 -20 -8z"/>
<path d="M5696 5372 c-3 -5 1 -9 9 -9 8 0 12 4 9 9 -3 4 -7 8 -9 8 -2 0 -6 -4
-9 -8z"/>
<path d="M5696 5337 c3 -9 10 -17 16 -17 5 0 6 -4 3 -10 -3 -6 1 -7 10 -4 9 4
15 7 13 8 -2 1 -13 10 -26 21 -20 16 -22 16 -16 2z"/>
<path d="M5766 5335 c-11 -8 -15 -15 -9 -15 6 0 16 7 23 15 16 19 11 19 -14 0z"/>
<path d="M5939 5323 c-13 -17 -13 -17 6 -3 11 8 22 16 24 17 2 2 0 3 -6 3 -6
0 -17 -8 -24 -17z"/>
<path d="M6110 5329 c0 -5 5 -7 10 -4 6 3 10 8 10 11 0 2 -4 4 -10 4 -5 0 -10
-5 -10 -11z"/>
<path d="M1295 5299 c-4 -6 -5 -12 -2 -15 2 -3 7 2 10 11 7 17 1 20 -8 4z"/>
<path d="M6176 5277 c3 -10 9 -15 12 -12 3 3 0 11 -7 18 -10 9 -11 8 -5 -6z"/>
<path d="M1216 5232 c-3 -5 1 -9 9 -9 8 0 12 4 9 9 -3 4 -7 8 -9 8 -2 0 -6 -4
-9 -8z"/>
<path d="M1126 5208 c3 -5 10 -6 15 -3 13 9 11 12 -6 12 -8 0 -12 -4 -9 -9z"/>
<path d="M6233 5165 c0 -8 4 -12 9 -9 4 3 8 9 8 15 0 5 -4 9 -8 9 -5 0 -9 -7
-9 -15z"/>
<path d="M1198 5143 c7 -3 16 -2 19 1 4 3 -2 6 -13 5 -11 0 -14 -3 -6 -6z"/>
<path d="M1155 5120 c10 -11 20 -20 23 -20 3 0 -3 9 -13 20 -10 11 -20 20 -23
20 -3 0 3 -9 13 -20z"/>
<path d="M1136 5092 c-3 -4 4 -9 15 -9 23 -2 25 3 4 10 -8 4 -16 3 -19 -1z"/>
<path d="M1026 5052 c-3 -5 1 -9 9 -9 8 0 12 4 9 9 -3 4 -7 8 -9 8 -2 0 -6 -4
-9 -8z"/>
<path d="M1061 4964 c0 -11 3 -14 6 -6 3 7 2 16 -1 19 -3 4 -6 -2 -5 -13z"/>
<path d="M6346 4952 c-3 -5 1 -9 9 -9 8 0 12 4 9 9 -3 4 -7 8 -9 8 -2 0 -6 -4
-9 -8z"/>
<path d="M975 4869 c-3 -4 2 -6 10 -5 21 3 28 13 10 13 -9 0 -18 -4 -20 -8z"/>
<path d="M6350 4876 c0 -2 7 -7 16 -10 8 -3 12 -2 9 4 -6 10 -25 14 -25 6z"/>
<path d="M6395 4870 c-3 -5 -1 -10 4 -10 6 0 11 5 11 10 0 6 -2 10 -4 10 -3 0
-8 -4 -11 -10z"/>
<path d="M6390 4835 c0 -7 30 -13 34 -7 3 4 -4 9 -15 9 -10 1 -19 0 -19 -2z"/>
<path d="M896 4791 c8 -8 43 -8 38 0 -2 4 -13 7 -24 6 -10 -1 -17 -3 -14 -6z"/>
<path d="M906 4728 c3 -5 10 -6 15 -3 13 9 11 12 -6 12 -8 0 -12 -4 -9 -9z"/>
<path d="M6441 4726 c-9 -11 -9 -16 1 -22 7 -4 10 -4 6 1 -4 4 -3 14 3 22 6 7
9 13 6 13 -2 0 -10 -6 -16 -14z"/>
<path d="M6476 4732 c-3 -5 1 -9 9 -9 8 0 12 4 9 9 -3 4 -7 8 -9 8 -2 0 -6 -4
-9 -8z"/>
<path d="M866 4712 c-3 -5 1 -9 9 -9 8 0 15 4 15 9 0 4 -4 8 -9 8 -6 0 -12 -4
-15 -8z"/>
<path d="M6465 4649 c-3 -4 2 -6 10 -5 21 3 28 13 10 13 -9 0 -18 -4 -20 -8z"/>
<path d="M709 4593 c-13 -16 -12 -17 4 -4 16 13 21 21 13 21 -2 0 -10 -8 -17
-17z"/>
<path d="M736 4548 c3 -5 10 -6 15 -3 13 9 11 12 -6 12 -8 0 -12 -4 -9 -9z"/>
<path d="M6550 4535 c0 -7 30 -13 34 -7 3 4 -4 9 -15 9 -10 1 -19 0 -19 -2z"/>
<path d="M6676 4497 c3 -10 9 -15 12 -12 3 3 0 11 -7 18 -10 9 -11 8 -5 -6z"/>
<path d="M720 4490 c0 -5 5 -10 11 -10 5 0 7 5 4 10 -3 6 -8 10 -11 10 -2 0
-4 -4 -4 -10z"/>
<path d="M6610 4491 c0 -6 4 -13 10 -16 6 -3 7 1 4 9 -7 18 -14 21 -14 7z"/>
<path d="M6816 4323 c-6 -14 -5 -15 5 -6 7 7 10 15 7 18 -3 3 -9 -2 -12 -12z"/>
<path d="M6855 4319 c-4 -6 -5 -12 -2 -15 2 -3 7 2 10 11 7 17 1 20 -8 4z"/>
<path d="M6855 4250 c3 -5 8 -10 11 -10 2 0 4 5 4 10 0 6 -5 10 -11 10 -5 0
-7 -4 -4 -10z"/>
<path d="M6995 4139 c-4 -6 -5 -12 -2 -15 2 -3 7 2 10 11 7 17 1 20 -8 4z"/>
<path d="M413 4115 c0 -8 4 -12 9 -9 5 3 6 10 3 15 -9 13 -12 11 -12 -6z"/>
<path d="M6759 3937 c6 -8 8 -17 5 -20 -3 -3 -2 -12 2 -19 5 -7 9 -17 9 -22 0
-5 7 -11 15 -13 13 -4 13 -3 0 6 -8 6 -11 11 -6 11 5 0 3 6 -3 14 -6 8 -11 18
-10 22 3 20 -2 34 -12 34 -8 0 -9 -4 0 -13z"/>
<path d="M6790 3915 c0 -5 5 -17 10 -25 5 -8 10 -10 10 -5 0 6 -5 17 -10 25
-5 8 -10 11 -10 5z"/>
<path d="M6870 3892 c0 -5 7 -9 15 -9 8 0 12 4 9 9 -3 4 -9 8 -15 8 -5 0 -9
-4 -9 -8z"/>
<path d="M652 3867 c-9 -10 -8 -19 3 -34 8 -11 11 -24 7 -28 -4 -5 -1 -5 6 -1
7 4 10 11 7 16 -3 4 -1 10 4 12 15 5 24 48 10 48 -7 0 -9 -3 -6 -6 3 -4 1 -16
-4 -27 -9 -16 -13 -17 -20 -6 -5 8 -3 16 4 21 6 4 9 10 6 13 -4 3 -11 -1 -17
-8z"/>
<path d="M6839 3878 c-5 -18 -6 -38 -1 -34 7 8 12 36 6 36 -2 0 -4 -1 -5 -2z"/>
<path d="M515 3860 c-4 -6 -11 -7 -17 -4 -7 4 -8 2 -4 -5 6 -9 11 -9 22 0 14
11 18 19 10 19 -3 0 -8 -5 -11 -10z"/>
<path d="M6869 3853 c-13 -16 -12 -17 4 -4 9 7 17 15 17 17 0 8 -8 3 -21 -13z"/>
<path d="M6990 3866 c0 -2 8 -10 18 -17 15 -13 16 -12 3 4 -13 16 -21 21 -21
13z"/>
<path d="M625 3809 c-11 -16 -1 -19 13 -3 7 8 8 14 3 14 -5 0 -13 -5 -16 -11z"/>
<path d="M6773 3803 c0 -10 4 -10 16 -1 9 7 18 13 20 15 2 1 -5 1 -16 0 -11 0
-20 -7 -20 -14z"/>
<path d="M680 3769 c0 -13 -4 -18 -12 -13 -7 4 -9 3 -5 -1 17 -19 34 -13 29
11 -5 29 -12 31 -12 3z"/>
<path d="M626 3770 c5 -8 9 -21 10 -28 2 -8 5 -17 8 -20 4 -3 5 4 3 16 -2 12
-9 28 -17 35 -10 10 -11 9 -4 -3z"/>
<path d="M6816 3748 c3 -5 10 -6 15 -3 13 9 11 12 -6 12 -8 0 -12 -4 -9 -9z"/>
<path d="M6748 3713 c7 -3 16 -2 19 1 4 3 -2 6 -13 5 -11 0 -14 -3 -6 -6z"/>
<path d="M626 3692 c-3 -5 1 -9 9 -9 8 0 15 4 15 9 0 4 -4 8 -9 8 -6 0 -12 -4
-15 -8z"/>
<path d="M690 3649 c0 -5 5 -7 10 -4 6 3 10 8 10 11 0 2 -4 4 -10 4 -5 0 -10
-5 -10 -11z"/>
<path d="M679 3503 c-13 -16 -12 -17 4 -4 9 7 17 15 17 17 0 8 -8 3 -21 -13z"/>
<path d="M6649 3443 c-13 -16 -12 -17 4 -4 16 13 21 21 13 21 -2 0 -10 -8 -17
-17z"/>
<path d="M655 3430 c3 -5 8 -10 11 -10 2 0 4 5 4 10 0 6 -5 10 -11 10 -5 0 -7
-4 -4 -10z"/>
<path d="M655 3390 c-3 -5 -1 -10 4 -10 6 0 11 5 11 10 0 6 -2 10 -4 10 -3 0
-8 -4 -11 -10z"/>
<path d="M6655 3390 c4 -6 11 -8 16 -5 14 9 11 15 -7 15 -8 0 -12 -5 -9 -10z"/>
<path d="M673 3295 c0 -8 4 -12 9 -9 5 3 6 10 3 15 -9 13 -12 11 -12 -6z"/>
<path d="M690 3226 c0 -2 8 -10 18 -17 15 -13 16 -12 3 4 -13 16 -21 21 -21
13z"/>
<path d="M676 3152 c-3 -5 1 -9 9 -9 8 0 12 4 9 9 -3 4 -7 8 -9 8 -2 0 -6 -4
-9 -8z"/>
<path d="M6618 3023 c7 -3 16 -2 19 1 4 3 -2 6 -13 5 -11 0 -14 -3 -6 -6z"/>
<path d="M699 3003 c-13 -16 -12 -17 4 -4 9 7 17 15 17 17 0 8 -8 3 -21 -13z"/>
<path d="M660 2930 c-9 -6 -10 -10 -3 -10 6 0 15 5 18 10 8 12 4 12 -15 0z"/>
<path d="M636 2823 c-6 -14 -5 -15 5 -6 7 7 10 15 7 18 -3 3 -9 -2 -12 -12z"/>
<path d="M676 2792 c-3 -5 1 -9 9 -9 8 0 12 4 9 9 -3 4 -7 8 -9 8 -2 0 -6 -4
-9 -8z"/>
<path d="M6715 2750 c3 -5 8 -10 11 -10 2 0 4 5 4 10 0 6 -5 10 -11 10 -5 0
-7 -4 -4 -10z"/>
<path d="M693 2603 c0 -9 4 -10 14 -2 7 6 13 12 13 14 0 1 -6 2 -13 2 -8 0
-14 -6 -14 -14z"/>
<path d="M646 2588 c3 -5 10 -6 15 -3 13 9 11 12 -6 12 -8 0 -12 -4 -9 -9z"/>
<path d="M6613 2479 c-2 -23 3 -25 10 -4 4 8 3 16 -1 19 -4 3 -9 -4 -9 -15z"/>
<path d="M690 2466 c0 -2 8 -10 18 -17 15 -13 16 -12 3 4 -13 16 -21 21 -21
13z"/>
<path d="M6510 2456 c0 -2 9 -6 20 -9 11 -3 18 -1 14 4 -5 9 -34 13 -34 5z"/>
<path d="M6507 2429 c7 -7 15 -10 18 -7 3 3 -2 9 -12 12 -14 6 -15 5 -6 -5z"/>
<path d="M6470 2411 c0 -6 4 -12 8 -15 5 -3 9 1 9 9 0 8 -4 15 -9 15 -4 0 -8
-4 -8 -9z"/>
<path d="M6390 2400 c0 -6 7 -10 15 -10 8 0 15 2 15 4 0 2 -7 6 -15 10 -8 3
-15 1 -15 -4z"/>
<path d="M633 2375 c0 -8 4 -12 9 -9 5 3 6 10 3 15 -9 13 -12 11 -12 -6z"/>
<path d="M6454 2370 c0 -13 4 -16 10 -10 7 7 7 13 0 20 -6 6 -10 3 -10 -10z"/>
<path d="M6410 2376 c0 -2 7 -7 16 -10 8 -3 12 -2 9 4 -6 10 -25 14 -25 6z"/>
<path d="M6379 2358 c-11 -40 1 -73 17 -47 5 8 3 9 -5 5 -15 -10 -11 25 4 36
6 5 5 8 -2 8 -7 0 -13 -1 -14 -2z"/>
<path d="M6493 2353 c4 -3 1 -13 -6 -22 -11 -14 -10 -14 5 -2 16 12 16 31 1
31 -4 0 -3 -3 0 -7z"/>
<path d="M6356 2285 c4 -8 8 -15 10 -15 2 0 4 7 4 15 0 8 -4 15 -10 15 -5 0
-7 -7 -4 -15z"/>
<path d="M6496 2272 c-3 -5 1 -9 9 -9 8 0 12 4 9 9 -3 4 -7 8 -9 8 -2 0 -6 -4
-9 -8z"/>
<path d="M6473 2197 c0 -8 6 -14 14 -14 9 0 10 4 2 14 -6 7 -12 13 -14 13 -1
0 -2 -6 -2 -13z"/>
<path d="M951 2097 c2 -1 13 -9 24 -17 19 -14 19 -14 6 3 -7 9 -18 17 -24 17
-6 0 -8 -1 -6 -3z"/>
<path d="M895 2070 c3 -5 8 -10 11 -10 2 0 4 5 4 10 0 6 -5 10 -11 10 -5 0 -7
-4 -4 -10z"/>
<path d="M970 2050 c0 -5 5 -10 11 -10 5 0 7 5 4 10 -3 6 -8 10 -11 10 -2 0
-4 -4 -4 -10z"/>
<path d="M1050 2029 c0 -5 5 -7 10 -4 6 3 10 8 10 11 0 2 -4 4 -10 4 -5 0 -10
-5 -10 -11z"/>
<path d="M1116 2017 c3 -10 9 -15 12 -12 3 3 0 11 -7 18 -10 9 -11 8 -5 -6z"/>
<path d="M1330 1986 c0 -2 8 -10 18 -17 15 -13 16 -12 3 4 -13 16 -21 21 -21
13z"/>
<path d="M6376 1963 c-6 -14 -5 -15 5 -6 7 7 10 15 7 18 -3 3 -9 -2 -12 -12z"/>
<path d="M5456 1943 c-6 -14 -5 -15 5 -6 7 7 10 15 7 18 -3 3 -9 -2 -12 -12z"/>
<path d="M1516 1929 c4 -8 30 -6 38 2 3 3 -5 5 -19 5 -13 0 -22 -3 -19 -7z"/>
<path d="M5506 1928 c3 -5 9 -7 12 -4 3 3 12 0 21 -6 13 -10 14 -10 4 2 -15
16 -46 23 -37 8z"/>
<path d="M5475 1921 c-3 -5 -2 -12 3 -15 5 -3 9 1 9 9 0 17 -3 19 -12 6z"/>
<path d="M6070 1926 c0 -2 8 -10 18 -17 15 -13 16 -12 3 4 -13 16 -21 21 -21
13z"/>
<path d="M1593 1903 c0 -9 4 -10 14 -2 7 6 13 12 13 14 0 1 -6 2 -13 2 -8 0
-14 -6 -14 -14z"/>
<path d="M5996 1908 c3 -5 10 -6 15 -3 13 9 11 12 -6 12 -8 0 -12 -4 -9 -9z"/>
<path d="M6115 1910 c-3 -5 -1 -10 4 -10 6 0 11 5 11 10 0 6 -2 10 -4 10 -3 0
-8 -4 -11 -10z"/>
<path d="M5324 1888 l-19 -23 23 19 c12 11 22 21 22 23 0 8 -8 2 -26 -19z"/>
<path d="M5985 1890 c10 -11 20 -20 23 -20 3 0 -3 9 -13 20 -10 11 -20 20 -23
20 -3 0 3 -9 13 -20z"/>
<path d="M6062 1894 c10 -10 20 -16 22 -13 3 3 -5 11 -17 18 -21 13 -21 12 -5
-5z"/>
<path d="M1620 1896 c0 -2 8 -10 18 -17 15 -13 16 -12 3 4 -13 16 -21 21 -21
13z"/>
<path d="M5360 1890 c-9 -6 -10 -10 -3 -10 6 0 15 5 18 10 8 12 4 12 -15 0z"/>
<path d="M5720 1890 c-9 -6 -10 -10 -3 -10 6 0 15 5 18 10 8 12 4 12 -15 0z"/>
<path d="M6150 1896 c0 -2 7 -7 16 -10 8 -3 12 -2 9 4 -6 10 -25 14 -25 6z"/>
<path d="M5775 1881 c-3 -5 -2 -12 3 -15 5 -3 9 1 9 9 0 17 -3 19 -12 6z"/>
<path d="M5413 1865 c0 -8 4 -12 9 -9 5 3 6 10 3 15 -9 13 -12 11 -12 -6z"/>
<path d="M5596 1868 c3 -4 11 -5 19 -1 21 7 19 12 -4 10 -11 0 -18 -5 -15 -9z"/>
<path d="M1806 1852 c-3 -5 1 -9 9 -9 8 0 15 4 15 9 0 4 -4 8 -9 8 -6 0 -12
-4 -15 -8z"/>
<path d="M1710 1830 c0 -5 5 -10 11 -10 5 0 7 5 4 10 -3 6 -8 10 -11 10 -2 0
-4 -4 -4 -10z"/>
<path d="M5173 1795 c0 -8 4 -12 9 -9 5 3 6 10 3 15 -9 13 -12 11 -12 -6z"/>
<path d="M2000 1790 c-9 -6 -10 -10 -3 -10 6 0 15 5 18 10 8 12 4 12 -15 0z"/>
<path d="M2020 1770 c-9 -6 -10 -10 -3 -10 6 0 15 5 18 10 8 12 4 12 -15 0z"/>
<path d="M2175 1739 c-4 -6 -5 -12 -2 -15 2 -3 7 2 10 11 7 17 1 20 -8 4z"/>
<path d="M2313 1722 c2 -12 6 -24 10 -28 3 -4 4 4 2 16 -6 30 -16 40 -12 12z"/>
<path d="M5026 1732 c-3 -5 1 -9 9 -9 8 0 12 4 9 9 -3 4 -7 8 -9 8 -2 0 -6 -4
-9 -8z"/>
<path d="M2215 1710 c3 -5 8 -10 11 -10 2 0 4 5 4 10 0 6 -5 10 -11 10 -5 0
-7 -4 -4 -10z"/>
<path d="M2266 1708 c3 -4 9 -8 15 -8 5 0 9 4 9 8 0 5 -7 9 -15 9 -8 0 -12 -4
-9 -9z"/>
<path d="M2347 1709 c7 -7 15 -10 18 -7 3 3 -2 9 -12 12 -14 6 -15 5 -6 -5z"/>
<path d="M2404 1692 c23 -26 23 -26 23 -7 0 8 -3 13 -5 10 -3 -3 -12 1 -21 7
-10 8 -9 4 3 -10z"/>
<path d="M4876 1683 c-6 -14 -5 -15 5 -6 7 7 10 15 7 18 -3 3 -9 -2 -12 -12z"/>
<path d="M4760 1656 c0 -2 7 -7 16 -10 8 -3 12 -2 9 4 -6 10 -25 14 -25 6z"/>
<path d="M2609 1613 c-13 -16 -12 -17 4 -4 16 13 21 21 13 21 -2 0 -10 -8 -17
-17z"/>
<path d="M4733 1595 c0 -8 4 -12 9 -9 5 3 6 10 3 15 -9 13 -12 11 -12 -6z"/>
<path d="M2853 1575 c0 -7 6 -11 14 -8 7 3 13 6 13 8 0 2 -6 5 -13 8 -8 3 -14
-1 -14 -8z"/>
<path d="M4622 1574 c10 -10 20 -16 22 -13 3 3 -5 11 -17 18 -21 13 -21 12 -5
-5z"/>
<path d="M4589 1553 c-13 -16 -12 -17 4 -4 9 7 17 15 17 17 0 8 -8 3 -21 -13z"/>
<path d="M2815 1550 c3 -5 8 -10 11 -10 2 0 4 5 4 10 0 6 -5 10 -11 10 -5 0
-7 -4 -4 -10z"/>
<path d="M2969 1533 c-13 -16 -12 -17 4 -4 9 7 17 15 17 17 0 8 -8 3 -21 -13z"/>
<path d="M4518 1522 c-11 -15 -11 -15 2 -6 8 6 23 10 33 8 11 -1 16 0 13 4
-13 12 -36 10 -48 -6z"/>
<path d="M2930 1509 c0 -5 5 -7 10 -4 6 3 10 8 10 11 0 2 -4 4 -10 4 -5 0 -10
-5 -10 -11z"/>
<path d="M4435 1499 c-4 -6 -5 -12 -2 -15 2 -3 7 2 10 11 7 17 1 20 -8 4z"/>
<path d="M3056 1488 c3 -4 11 -5 19 -1 21 7 19 12 -4 10 -11 0 -18 -5 -15 -9z"/>
<path d="M3134 1484 c1 -8 4 -15 7 -16 2 -2 3 -1 2 1 -2 2 2 9 7 16 7 8 5 12
-4 12 -8 0 -13 -6 -12 -13z"/>
<path d="M4396 1477 c3 -10 9 -15 12 -12 3 3 0 11 -7 18 -10 9 -11 8 -5 -6z"/>
<path d="M4475 1469 c-3 -4 2 -6 10 -5 21 3 28 13 10 13 -9 0 -18 -4 -20 -8z"/>
<path d="M4370 1466 c0 -2 8 -10 18 -17 15 -13 16 -12 3 4 -13 16 -21 21 -21
13z"/>
<path d="M4596 1457 c3 -10 9 -15 12 -12 3 3 0 11 -7 18 -10 9 -11 8 -5 -6z"/>
<path d="M3066 1452 c-3 -5 1 -9 9 -9 8 0 12 4 9 9 -3 4 -7 8 -9 8 -2 0 -6 -4
-9 -8z"/>
<path d="M3196 1448 c3 -5 10 -6 15 -3 13 9 11 12 -6 12 -8 0 -12 -4 -9 -9z"/>
<path d="M3230 1450 c0 -4 7 -7 15 -6 23 3 26 12 5 13 -11 1 -20 -2 -20 -7z"/>
<path d="M3313 1445 c0 -8 4 -12 9 -9 5 3 6 10 3 15 -9 13 -12 11 -12 -6z"/>
<path d="M3380 1436 c0 -2 8 -10 18 -17 15 -13 16 -12 3 4 -13 16 -21 21 -21
13z"/>
<path d="M4304 1432 c4 -3 14 -7 22 -8 9 -1 13 0 10 4 -4 3 -14 7 -22 8 -9 1
-13 0 -10 -4z"/>
<path d="M3576 1368 c3 -5 10 -6 15 -3 13 9 11 12 -6 12 -8 0 -12 -4 -9 -9z"/>
<path d="M3476 1348 c3 -4 11 -5 19 -1 21 7 19 12 -4 10 -11 0 -18 -5 -15 -9z"/>
<path d="M3827 1309 c7 -7 15 -10 18 -7 3 3 -2 9 -12 12 -14 6 -15 5 -6 -5z"/>
<path d="M4030 1308 c0 -4 4 -8 9 -8 6 0 12 4 15 8 3 5 -1 9 -9 9 -8 0 -15 -4
-15 -9z"/>
<path d="M3795 1291 c-3 -5 -2 -12 3 -15 5 -3 9 1 9 9 0 17 -3 19 -12 6z"/>
<path d="M3935 1281 c-3 -5 -2 -12 3 -15 5 -3 9 1 9 9 0 17 -3 19 -12 6z"/>
<path d="M3895 1270 c-3 -5 -1 -10 4 -10 6 0 11 5 11 10 0 6 -2 10 -4 10 -3 0
-8 -4 -11 -10z"/>
</g>
</svg>
