<svg xmlns="http://www.w3.org/2000/svg" width="33" height="33" viewBox="0 0 33 33">
  <path id="house-user-solid" d="M32.7,15.228l-3.362-3.341V3.094a.979.979,0,0,0-.917-1.031H24.75a.979.979,0,0,0-.917,1.031v3.33l-5.8-5.76A2.475,2.475,0,0,0,16.5,0a2.469,2.469,0,0,0-1.532.664L.3,15.23A1.251,1.251,0,0,0,0,16a1.292,1.292,0,0,0,.234.69l1.227,1.533a1.152,1.152,0,0,0,.688.342,1.164,1.164,0,0,0,.612-.265l.911-.9V30.938A1.958,1.958,0,0,0,5.505,33H27.5a1.958,1.958,0,0,0,1.833-2.062V17.395l.912.9a1.179,1.179,0,0,0,.614.266,1.14,1.14,0,0,0,.68-.342l1.227-1.535A1.5,1.5,0,0,0,33,16,1.438,1.438,0,0,0,32.7,15.228ZM16.5,11.344a3.916,3.916,0,0,1,3.667,4.125A3.916,3.916,0,0,1,16.5,19.594a3.916,3.916,0,0,1-3.667-4.125A3.916,3.916,0,0,1,16.5,11.344Zm6.417,17.531H10.083a.979.979,0,0,1-.917-1.031c0-3.417,2.462-6.187,5.5-6.187h3.667c3.038,0,5.5,2.77,5.5,6.188A.979.979,0,0,1,22.917,28.875Z" fill="#fff"/>
</svg>
